<svg width="16" height="16" viewBox="0 0 16 16" fill="none" xmlns="http://www.w3.org/2000/svg">
<path fill-rule="evenodd" clip-rule="evenodd" d="M9.33333 3.33333C8.96513 3.33333 8.66667 3.03485 8.66667 2.66667C8.66667 2.29848 8.96513 2 9.33333 2H13.3333C13.7015 2 14 2.29848 14 2.66667V6.66667C14 7.03487 13.7015 7.33333 13.3333 7.33333C12.9651 7.33333 12.6667 7.03487 12.6667 6.66667V4.27614L7.80473 9.13807C7.5444 9.3984 7.12227 9.3984 6.86193 9.13807C6.60158 8.87773 6.60158 8.4556 6.86193 8.19527L11.7239 3.33333H9.33333ZM4.77431 3.33333H6C6.36819 3.33333 6.66667 3.63181 6.66667 4C6.66667 4.36819 6.36819 4.66667 6 4.66667H4.8C4.41563 4.66667 4.16745 4.66719 3.97856 4.68262C3.79745 4.69741 3.73031 4.72253 3.69734 4.73933C3.5719 4.80325 3.46991 4.90523 3.406 5.03067C3.3892 5.06363 3.36408 5.13078 3.34929 5.31189C3.33385 5.50078 3.33333 5.74897 3.33333 6.13333V11.2C3.33333 11.5844 3.33385 11.8325 3.34929 12.0215C3.36408 12.2025 3.3892 12.2697 3.406 12.3027C3.46991 12.4281 3.5719 12.5301 3.69734 12.594C3.73031 12.6108 3.79745 12.6359 3.97856 12.6507C4.16745 12.6661 4.41563 12.6667 4.8 12.6667H9.86667C10.2511 12.6667 10.4992 12.6661 10.6881 12.6507C10.8692 12.6359 10.9363 12.6108 10.9693 12.594C11.0948 12.5301 11.1967 12.4281 11.2607 12.3027C11.2775 12.2697 11.3026 12.2025 11.3174 12.0215C11.3328 11.8325 11.3333 11.5844 11.3333 11.2V10C11.3333 9.6318 11.6318 9.33333 12 9.33333C12.3682 9.33333 12.6667 9.6318 12.6667 10V11.2257C12.6667 11.5771 12.6667 11.8803 12.6463 12.13C12.6247 12.3936 12.5772 12.6557 12.4487 12.908C12.2569 13.2843 11.951 13.5903 11.5747 13.782C11.3224 13.9105 11.0603 13.9581 10.7967 13.9796C10.547 14 10.2438 14 9.8924 14H4.77429C4.42287 14 4.11969 14 3.86998 13.9796C3.60642 13.9581 3.34427 13.9105 3.09202 13.782C2.71569 13.5903 2.40973 13.2843 2.21799 12.908C2.08946 12.6557 2.04191 12.3936 2.02038 12.13C1.99998 11.8803 1.99999 11.5771 2 11.2257V6.10764C1.99999 5.75621 1.99998 5.45303 2.02038 5.20331C2.04191 4.93975 2.08946 4.67761 2.21799 4.42535C2.40973 4.04903 2.71569 3.74307 3.09202 3.55132C3.34427 3.42279 3.60642 3.37525 3.86998 3.35371C4.1197 3.33331 4.42287 3.33332 4.77431 3.33333Z" fill="white" fill-opacity="0.5"/>
</svg>
